# xmcd
#
# Track frame offsets:
#	150
#	12934
#	32333
#	51241
#	64836
#	79694
#	95988
#	109087
#	124142
#	141032
#	158122
#	174722
#	194338
#	214037
#
# Disc length: 2991 seconds
#
# Revision: 1
# Processed by: cddbd v1.5.2PL0 Copyright (c) Steve Scherf et al.
# Submitted via: audiograbber 1.83.01
#
DISCID=c10bad0e
DTITLE=Roto Noto - Radio Radio
DYEAR=2000
DGENRE=Country
TTITLE0=I Am What I Am - Harold Macintyre
TTITLE1=Cheyenne - Amberwood
TTITLE2=Let Him Go - Manon
TTITLE3=That´s The Hole Truth - Michael Terry
TTITLE4=List Of Broken Hearts - Sharon Westlake
TTITLE5=It´s Ok To Cry - Lenny Paquette
TTITLE6=Take Me In Your Heart Tonigth - Lauren Cook
TTITLE7=Change In The Weather - Mary Beth Sippin
TTITLE8=Mr Sandman - Corinda
TTITLE9=Brown Street - Geoffrey Wickman
TTITLE10=Catch 22 - Susan Shelley
TTITLE11=Fate In Action - Insiders
TTITLE12=In Fess Station - Janelle´s Groove
TTITLE13=Awesome Coll - Douglas
EXTD=
EXTT0=
EXTT1=
EXTT2=
EXTT3=
EXTT4=
EXTT5=
EXTT6=
EXTT7=
EXTT8=
EXTT9=
EXTT10=
EXTT11=
EXTT12=
EXTT13=
PLAYORDER=
